<?xml version="1.0" encoding="utf-8"?>
<!-- Generator: Adobe Illustrator 19.1.0, SVG Export Plug-In . SVG Version: 6.00 Build 0)  -->
<svg version="1.1" id="Capa_1" xmlns="http://www.w3.org/2000/svg" xmlns:xlink="http://www.w3.org/1999/xlink" x="0px" y="0px"
	 viewBox="-115 -380.7 380.7 380.7" style="enable-background:new -115 -380.7 380.7 380.7;" xml:space="preserve">
<style type="text/css">
	.st0{fill:#009688;}
</style>
<path class="st0" d="M75.4-350.9c-88.7,0-160.5,71.9-160.5,160.5c0,65.9,39.7,122.4,96.5,147.2l2.1-40.5c0-32.2-23.8-21.9-23.8-44.5
	c0-12.6,0.4-39,0.4-58.8c0-52.7,22.4-103.7,27.9-115c5.5-11.4,18.5-23.8,18.7-11.8c0,17.3,0.7,218.6,0.7,218.6L39.9-34
	c11.5,2.6,23.4,4.1,35.7,4.1c6.7,0,13.3-0.5,19.8-1.3l5.3-102.9c-13.1-2.9-24.3-11.2-31.3-21.7c-8.7-13,6.7-128.1,6.7-128.1h10v108
	H96v-108h10.8v108h9.9v-108H128v108h9.9v-108h7.7c0,0,15.3,115.1,6.7,128.1c-6.9,10.4-18,18.7-31,21.6l-0.4,0.2l5,96
	c64-21.1,110.2-81.3,110.2-152.4C235.9-279,164-350.9,75.4-350.9L75.4-350.9z"/>
<path class="st0" d="M75.4-380.7c-105,0-190.4,85.4-190.4,190.4C-115-85.4-29.6,0,75.4,0s190.3-85.4,190.3-190.4
	C265.7-295.3,180.3-380.7,75.4-380.7z M75.4-14.2c-97.1,0-176.2-79-176.2-176.2c0-97.1,79-176.2,176.2-176.2
	c97.1,0,176.2,79,176.2,176.2C251.5-93.2,172.5-14.2,75.4-14.2z"/>
</svg>
