<svg id="Capa_1" xmlns="http://www.w3.org/2000/svg" viewBox="-115 -380.7 380.7 380.7"><style>.st0{fill:#009688}</style><path class="st0" d="M75.4-350.9c-88.7 0-160.5 71.9-160.5 160.5 0 65.9 39.7 122.4 96.5 147.2l2.1-40.5c0-32.2-23.8-21.9-23.8-44.5 0-12.6.4-39 .4-58.8 0-52.7 22.4-103.7 27.9-115 5.5-11.4 18.5-23.8 18.7-11.8 0 17.3.7 218.6.7 218.6L39.9-34c11.5 2.6 23.4 4.1 35.7 4.1 6.7 0 13.3-.5 19.8-1.3l5.3-102.9c-13.1-2.9-24.3-11.2-31.3-21.7-8.7-13 6.7-128.1 6.7-128.1h10v108H96v-108h10.8v108h9.9v-108H128v108h9.9v-108h7.7s15.3 115.1 6.7 128.1c-6.9 10.4-18 18.7-31 21.6l-.4.2 5 96c64-21.1 110.2-81.3 110.2-152.4-.2-88.6-72.1-160.5-160.7-160.5z"/><path class="st0" d="M75.4-380.7c-105 0-190.4 85.4-190.4 190.4C-115-85.4-29.6 0 75.4 0s190.3-85.4 190.3-190.4c0-104.9-85.4-190.3-190.3-190.3zm0 366.5c-97.1 0-176.2-79-176.2-176.2 0-97.1 79-176.2 176.2-176.2 97.1 0 176.2 79 176.2 176.2-.1 97.2-79.1 176.2-176.2 176.2z"/></svg>